<?xml version="1.0" standalone="no"?>
<!DOCTYPE svg PUBLIC "-//W3C//DTD SVG 1.1//EN" "http://www.w3.org/Graphics/SVG/1.1/DTD/svg11.dtd" >
<svg xmlns="http://www.w3.org/2000/svg">
<metadata>
This is a custom SVG webfont generated by Font Squirrel.
Copyright   : Created by Tim Larson with FontForge 20 httpfontforgesfnet  Licensed under OFL
</metadata>
<defs>
<font id="SquarishSansCTRegularSC" horiz-adv-x="1570" >
<font-face units-per-em="2048" ascent="1560" descent="-488" />
<missing-glyph horiz-adv-x="785" />
<glyph unicode=" "  horiz-adv-x="785" />
<glyph unicode="&#x09;" horiz-adv-x="785" />
<glyph unicode="&#xa0;" horiz-adv-x="785" />
<glyph unicode="!" horiz-adv-x="735" d="M240 100v55q0 75 12.5 87.5t87.5 12.5h55q75 0 87.5 -12.5t12.5 -87.5v-55q0 -75 -12.5 -87.5t-87.5 -12.5h-55q-75 0 -87.5 12.5t-12.5 87.5zM240 1100h255l-23 -710h-210z" />
<glyph unicode="&#x22;" horiz-adv-x="695" d="M420 850v600h185v-600h-185zM90 850v600h185v-600h-185z" />
<glyph unicode="#" horiz-adv-x="1579" d="M120 295l48 130h301l91 250h-299l46 125h298l110 300h127l-109 -300h297l110 300h127l-109 -300h301l-45 -125h-301l-91 -250h298l-47 -130h-299l-107 -295h-128l108 295h-298l-107 -295h-128l108 295h-302zM597 425h297l91 250h-297z" />
<glyph unicode="$" horiz-adv-x="1580" d="M180 205v107l225 38v-170h293v315h-268q-250 0 -250 185v225q0 195 250 195h268v170h184v-170h268q250 0 250 -195v-73l-225 -37v135h-293v-275h268q250 0 250 -185v-265q0 -102 -60 -153.5t-190 -51.5h-268v-180h-184v180h-268q-130 0 -190 51.5t-60 153.5zM405 655h293 v275h-293v-275zM882 180h293v315h-293v-315z" />
<glyph unicode="%" horiz-adv-x="1650" d="M90 705v240q0 71 52.5 113t157.5 42h265q105 0 157.5 -42t52.5 -113v-240q0 -71 -52.5 -113t-157.5 -42h-265q-105 0 -157.5 42t-52.5 113zM241 0l1000 1100h168l-1000 -1100h-168zM275 680h315v290h-315v-290zM875 155v240q0 71 52.5 113t157.5 42h265q105 0 157.5 -42 t52.5 -113v-240q0 -71 -52.5 -113t-157.5 -42h-265q-105 0 -157.5 42t-52.5 113zM1060 130h315v290h-315v-290z" />
<glyph unicode="&#x26;" horiz-adv-x="1725" d="M270 205v165q0 106 38 155.5t130 49.5q-91 0 -129.5 48.5t-38.5 151.5v130q0 195 250 195h285q139 0 194.5 -46t55.5 -149v-13l-225 -37v75h-250q-37 0 -61 -24t-24 -61v-110q0 -35 22.5 -57.5t57.5 -22.5h335v-160h-335q-35 0 -57.5 -22.5t-22.5 -57.5v-145 q0 -39 25.5 -64.5t64.5 -25.5h540q39 0 64.5 25.5t25.5 64.5v380h-80v170h80v252l225 38v-290h205v-170h-205v-445q0 -109 -56 -157t-194 -48h-670q-138 0 -194 48t-56 157z" />
<glyph unicode="'" horiz-adv-x="365" d="M90 850v600h185v-600h-185z" />
<glyph unicode="(" horiz-adv-x="667" d="M180 25v900q0 91 51.5 133t178.5 42h168v-150h-118q-33 0 -54 -21t-21 -54v-795q0 -35 22.5 -57.5t57.5 -22.5h113v-160h-168q-126 0 -178 44t-52 141z" />
<glyph unicode=")" horiz-adv-x="667" d="M90 0h112q35 0 57.5 22.5t22.5 57.5v795q0 33 -21 54t-53 21h-118v150h168q126 0 178 -42t52 -133v-900q0 -97 -52.5 -141t-177.5 -44h-168v160z" />
<glyph unicode="*" horiz-adv-x="978" d="M160 811l42 129l247 -116l-42 276h165l-41 -279l249 114l38 -119l-270 -55l196 -203l-126 -91l-130 244l-130 -242l-118 86l193 203z" />
<glyph unicode="+" horiz-adv-x="1620" d="M270 490v140h448v470h184v-470h448v-140h-448v-470h-184v470h-448z" />
<glyph unicode="," horiz-adv-x="645" d="M180 150v35q0 75 12.5 87.5t87.5 12.5h85q75 0 87.5 -12.5t12.5 -87.5v-135l-178 -357l-107 54l151 303h-51q-75 0 -87.5 12.5t-12.5 87.5z" />
<glyph unicode="-" horiz-adv-x="660" d="M90 485v180h480v-180h-480z" />
<glyph unicode="." horiz-adv-x="645" d="M180 100v85q0 75 12.5 87.5t87.5 12.5h85q75 0 87.5 -12.5t12.5 -87.5v-85q0 -75 -12.5 -87.5t-87.5 -12.5h-85q-75 0 -87.5 12.5t-12.5 87.5z" />
<glyph unicode="/" horiz-adv-x="572" d="M0 -50l460 1200h112l-460 -1200h-112z" />
<glyph unicode="0" d="M180 205v700q0 103 55.5 149t194.5 46h710q139 0 194.5 -46t55.5 -149v-700q0 -109 -56 -157t-194 -48h-710q-138 0 -194 48t-56 157zM405 180h760v750h-760v-750z" />
<glyph unicode="1" d="M538 860v140l450 100v-1100h-226v860h-224z" />
<glyph unicode="2" d="M180 0v93q0 41 8 71.5t26 53.5t36 38t47 33l813 512v129h-650v-195l-225 37v133q0 195 250 195h600q250 0 250 -195v-53q0 -41 -8 -71.5t-26 -53.5t-36 -38t-47 -33l-756 -476h703v168l225 -38v-105q0 -109 -56 -157t-194 -48h-960z" />
<glyph unicode="3" d="M180 205v105l225 38v-168h670q39 0 64.5 25.5t25.5 64.5v145q0 35 -22.5 57.5t-57.5 22.5h-415v160h390q35 0 57.5 22.5t22.5 57.5v110q0 37 -24 61t-61 24h-625v-128l-225 38v65q0 195 250 195h660q250 0 250 -195v-147q0 -81 -43 -125.5t-137 -56.5q114 -6 159.5 -48 t45.5 -136v-187q0 -109 -56 -157t-194 -48h-710q-138 0 -194 48t-56 157z" />
<glyph unicode="4" d="M147 260v160l811 680h225v-680h240v-160h-240v-260h-225v260h-811zM427 420h531v446z" />
<glyph unicode="5" d="M187 505l55 595h1010l-15 -170h-800l-24 -265h724q138 0 194 -48t56 -157v-255q0 -109 -56 -157t-194 -48h-690q-138 0 -194 48t-56 157v85l225 38v-148h740v325h-975z" />
<glyph unicode="6" d="M180 205v700q0 195 250 195h810l-15 -170h-735q-37 0 -61 -24t-24 -61v-190h735q250 0 250 -183v-267q0 -109 -56 -157t-194 -48h-710q-138 0 -194 48t-56 157zM405 270q0 -39 25.5 -64.5t64.5 -25.5h580q39 0 64.5 25.5t25.5 64.5v145q0 35 -22.5 57.5t-57.5 22.5h-600 q-35 0 -57.5 -22.5t-22.5 -57.5v-145z" />
<glyph unicode="7" d="M180 775v325h1210v-170l-554 -930h-245l555 930h-741v-192z" />
<glyph unicode="8" d="M180 205v187q0 94 45.5 136t159.5 48q-94 12 -137 56.5t-43 125.5v147q0 195 250 195h660q250 0 250 -195v-147q0 -81 -43 -125.5t-137 -56.5q114 -6 159.5 -48t45.5 -136v-187q0 -109 -56 -157t-194 -48h-710q-138 0 -194 48t-56 157zM405 270q0 -39 25.5 -64.5 t64.5 -25.5h580q39 0 64.5 25.5t25.5 64.5v145q0 35 -22.5 57.5t-57.5 22.5h-600q-35 0 -57.5 -22.5t-22.5 -57.5v-145zM430 735q0 -35 22.5 -57.5t57.5 -22.5h550q35 0 57.5 22.5t22.5 57.5v110q0 37 -24 61t-61 24h-540q-37 0 -61 -24t-24 -61v-110z" />
<glyph unicode="9" d="M180 680v225q0 195 250 195h710q250 0 250 -195v-700q0 -109 -56 -157t-194 -48h-685q-138 0 -194 48t-56 157v85l225 38v-148h645q39 0 64.5 25.5t25.5 64.5v225h-735q-250 0 -250 185zM405 735q0 -35 22.5 -57.5t57.5 -22.5h680v190q0 37 -24 61t-61 24h-590 q-37 0 -61 -24t-24 -61v-110z" />
<glyph unicode=":" horiz-adv-x="645" d="M180 100v85q0 75 12.5 87.5t87.5 12.5h85q75 0 87.5 -12.5t12.5 -87.5v-85q0 -75 -12.5 -87.5t-87.5 -12.5h-85q-75 0 -87.5 12.5t-12.5 87.5zM180 650v85q0 75 12.5 87.5t87.5 12.5h85q75 0 87.5 -12.5t12.5 -87.5v-85q0 -75 -12.5 -87.5t-87.5 -12.5h-85 q-75 0 -87.5 12.5t-12.5 87.5z" />
<glyph unicode=";" horiz-adv-x="645" d="M180 150v35q0 75 12.5 87.5t87.5 12.5h85q75 0 87.5 -12.5t12.5 -87.5v-135l-178 -357l-107 54l151 303h-51q-75 0 -87.5 12.5t-12.5 87.5zM180 650v85q0 75 12.5 87.5t87.5 12.5h85q75 0 87.5 -12.5t12.5 -87.5v-85q0 -75 -12.5 -87.5t-87.5 -12.5h-85q-75 0 -87.5 12.5 t-12.5 87.5z" />
<glyph unicode="&#x3c;" horiz-adv-x="1620" d="M270 486v148l1080 326v-125l-875 -265l875 -264v-146z" />
<glyph unicode="=" horiz-adv-x="1620" d="M270 310v140h1080v-140h-1080zM270 670v140h1080v-140h-1080z" />
<glyph unicode="&#x3e;" horiz-adv-x="1620" d="M270 160v125l875 265l-875 264v146l1080 -326v-148z" />
<glyph unicode="?" horiz-adv-x="1055" d="M80 812v93q0 103 55.5 149t194.5 46h395q139 0 194.5 -46t55.5 -149v-225q0 -103 -55.5 -149t-194.5 -46h-100v-85l-240 -40v90q0 114 61 164.5t209 50.5h95v265h-445v-155zM378 100v55q0 75 12 87.5t88 12.5h54q76 0 88 -12.5t12 -87.5v-55q0 -75 -12 -87.5t-88 -12.5 h-54q-76 0 -88 12.5t-12 87.5z" />
<glyph unicode="@" horiz-adv-x="2000" d="M180 25v1050q0 71 52.5 113t157.5 42h1220q105 0 157.5 -42t52.5 -113v-770q0 -78 -52 -121.5t-158 -43.5h-45q-169 0 -203 110q-33 -110 -202 -110h-405q-106 0 -158 43.5t-52 121.5v500q0 71 52.5 113t157.5 42h700v-610q0 -30 20 -50t50 -20h110v820h-1270v-1100h1180 v-140h-1155q-106 0 -158 43.5t-52 121.5zM730 280h470q30 0 50 20t20 50v480h-540v-550z" />
<glyph unicode="A" horiz-adv-x="1651" d="M90 0l610 1100h251l610 -1100h-263l-133 240h-702l-133 -240h-240zM563 420h502l-251 453z" />
<glyph unicode="B" horiz-adv-x="1690" d="M270 0v1100h880q148 0 209 -50.5t61 -164.5v-100q0 -111 -39.5 -160.5t-132.5 -49.5q95 0 133.5 -50.5t38.5 -164.5v-135q0 -121 -60 -173t-210 -52h-880zM515 200h560q43 0 71.5 28.5t28.5 71.5v85q0 43 -28.5 71.5t-71.5 28.5h-560v-285zM515 665h560q42 0 71 27t29 68 v55q0 41 -29 68t-71 27h-560v-245z" />
<glyph unicode="C" horiz-adv-x="1665" d="M270 225v660q0 114 61 164.5t209 50.5h610q148 0 209 -50.5t61 -164.5v-130l-245 -40v195h-660v-710h660v230l245 -40v-165q0 -121 -60 -173t-210 -52h-610q-150 0 -210 52t-60 173z" />
<glyph unicode="D" horiz-adv-x="1740" d="M270 0v1100h705q114 0 211 -32t164.5 -86.5t115.5 -126.5t71 -153t23 -167q0 -82 -21.5 -159t-68 -145.5t-114 -119.5t-165.5 -81t-216 -30h-705zM515 200h325q100 0 180.5 20.5t133 55.5t88 82.5t50.5 98.5t15 107q0 67 -22 128t-62.5 110t-106 78.5t-146.5 29.5h-455 v-710z" />
<glyph unicode="E" horiz-adv-x="1540" d="M270 0v1100h1075v-190h-830v-245h560v-180h-560v-285h845v-200h-1090z" />
<glyph unicode="F" horiz-adv-x="1375" d="M270 0v1100h1075v-190h-830v-295h560v-180h-560v-435h-245z" />
<glyph unicode="G" horiz-adv-x="1765" d="M270 225v660q0 114 61 164.5t209 50.5h710q148 0 209 -50.5t61 -164.5v-50l-245 -40v115h-760v-710h760v285h-360v180h605v-440q0 -121 -60 -173t-210 -52h-710q-150 0 -210 52t-60 173z" />
<glyph unicode="H" horiz-adv-x="1795" d="M270 0v1100h245v-435h765v435h245v-1100h-245v485h-765v-485h-245z" />
<glyph unicode="I" horiz-adv-x="785" d="M270 0v1100h245v-1100h-245z" />
<glyph unicode="J" horiz-adv-x="1360" d="M90 225v245l245 40v-310h510v900h245v-875q0 -121 -60 -173t-210 -52h-460q-150 0 -210 52t-60 173z" />
<glyph unicode="K" horiz-adv-x="1597" d="M270 0v1100h245v-449l533 449h330l-622 -515l751 -585h-374l-618 487v-487h-245z" />
<glyph unicode="L" horiz-adv-x="1405" d="M270 0v1100h245v-900h830v-200h-1075z" />
<glyph unicode="M" horiz-adv-x="1900" d="M270 0v1100h260l426 -649l426 649h248v-1100h-245v722l-388 -592h-106l-376 574v-704h-245z" />
<glyph unicode="N" horiz-adv-x="1800" d="M270 0v1100h279l736 -798v798h245v-1100h-279l-736 798v-798h-245z" />
<glyph unicode="O" horiz-adv-x="1830" d="M270 225v660q0 114 61 164.5t209 50.5h750q148 0 209 -50.5t61 -164.5v-660q0 -121 -60 -173t-210 -52h-750q-150 0 -210 52t-60 173zM515 200h800v710h-800v-710z" />
<glyph unicode="P" horiz-adv-x="1510" d="M270 0v1100h880q148 0 209 -50.5t61 -164.5v-245q0 -205 -270 -205h-635v-435h-245zM515 615h560q42 0 71 27t29 68v105q0 41 -29 68t-71 27h-560v-295z" />
<glyph unicode="Q" horiz-adv-x="1830" d="M270 225v660q0 114 61 164.5t209 50.5h750q148 0 209 -50.5t61 -164.5v-660q0 -121 -60 -173t-210 -52h-91l106 -235h-229l-100 235h-436q-150 0 -210 52t-60 173zM515 200h375l-114 266l178 78l155 -344h206v710h-800v-710z" />
<glyph unicode="R" horiz-adv-x="1618" d="M270 0v1100h880q148 0 209 -50.5t61 -164.5v-245q0 -205 -270 -205h-111l445 -435h-325l-421 435h-223v-435h-245zM515 615h560q42 0 71 27t29 68v105q0 41 -29 68t-71 27h-560v-295z" />
<glyph unicode="S" horiz-adv-x="1690" d="M270 225v85l245 40v-150h660v285h-635q-150 0 -210 52t-60 173v175q0 114 61 164.5t209 50.5h610q148 0 209 -50.5t61 -164.5v-50l-245 -40v115h-660v-245h635q148 0 209 -50.5t61 -164.5v-225q0 -121 -60 -173t-210 -52h-610q-150 0 -210 52t-60 173z" />
<glyph unicode="T" horiz-adv-x="1285" d="M30 910v190h1225v-190h-490v-910h-245v910h-490z" />
<glyph unicode="U" horiz-adv-x="1740" d="M270 225v875h245v-900h710v900h245v-875q0 -121 -60 -173t-210 -52h-660q-150 0 -210 52t-60 173z" />
<glyph unicode="V" horiz-adv-x="1400" d="M49 1100h262l419 -775l386 775h235l-549 -1100h-158z" />
<glyph unicode="W" horiz-adv-x="1850" d="M25 1100h251l308 -705l278 705h151l308 -705l278 705h226l-434 -1100h-149l-309 708l-279 -708h-149z" />
<glyph unicode="X" horiz-adv-x="1499" d="M90 1100h312l349 -394l319 394h274l-460 -538l526 -562h-312l-352 397l-321 -397h-274l463 541z" />
<glyph unicode="Y" horiz-adv-x="1362" d="M30 1100h312l374 -408l342 408h274l-497 -592v-508h-245v488z" />
<glyph unicode="Z" horiz-adv-x="1385" d="M90 0v126l828 789h-753v190h1130v-121l-823 -784h823v-200h-1205z" />
<glyph unicode="[" horiz-adv-x="672" d="M180 -160v1260h462v-150h-257v-950h257v-160h-462z" />
<glyph unicode="\" horiz-adv-x="583" d="M0 1150h123l460 -1200h-123z" />
<glyph unicode="]" horiz-adv-x="672" d="M30 0h258v950h-258v150h462v-1260h-462v160z" />
<glyph unicode="^" horiz-adv-x="1514" d="M160 1000l500 450h193l501 -450h-209l-402 333l-404 -333h-179z" />
<glyph unicode="_" horiz-adv-x="1024" d="M0 -320h1024v-140h-1024v140z" />
<glyph unicode="`" horiz-adv-x="700" d="M90 1394h175l345 -488h-170z" />
<glyph unicode="a" horiz-adv-x="1435" d="M80 0l524 900h228l524 -900h-243l-111 190h-590l-110 -190h-222zM507 352h401l-201 344z" />
<glyph unicode="b" horiz-adv-x="1469" d="M240 0v900h758q127 0 179.5 -41t52.5 -135v-82q0 -91 -36 -131.5t-122 -40.5q87 0 122.5 -41.5t35.5 -134.5v-110q0 -99 -52 -141.5t-180 -42.5h-758zM465 179h458q35 0 58.5 21t23.5 53v62q0 32 -23.5 53t-58.5 21h-458v-210zM465 551h458q34 0 58 19.5t24 49.5v41 q0 30 -24 49.5t-58 19.5h-458v-179z" />
<glyph unicode="c" horiz-adv-x="1447" d="M240 184v540q0 94 52.5 135t179.5 41h526q127 0 179.5 -42.5t52.5 -138.5v-109l-225 -31v151h-540v-551h540v178l225 -31v-138q0 -101 -52 -144.5t-180 -43.5h-526q-128 0 -180 42.5t-52 141.5z" />
<glyph unicode="d" horiz-adv-x="1506" d="M240 0v900h604q121 0 219 -39.5t158.5 -106t92.5 -147.5t32 -169q0 -85 -30.5 -162t-89.5 -139.5t-157.5 -99.5t-224.5 -37h-604zM465 179h266q102 0 178.5 24t119.5 65.5t63.5 90t20.5 103.5q0 109 -73 188.5t-203 79.5h-372v-551z" />
<glyph unicode="e" horiz-adv-x="1315" d="M240 0v900h904v-170h-679v-179h458v-162h-458v-210h691v-179h-916z" />
<glyph unicode="f" horiz-adv-x="1170" d="M240 0v900h904v-170h-679v-227h458v-162h-458v-341h-225z" />
<glyph unicode="g" horiz-adv-x="1529" d="M240 184v540q0 94 52.5 135t179.5 41h608q127 0 179.5 -42.5t52.5 -139.5v-43l-225 -29v84h-622v-551h622v210h-295v162h520v-365q0 -99 -52 -142.5t-180 -43.5h-608q-128 0 -180 42.5t-52 141.5z" />
<glyph unicode="h" horiz-adv-x="1555" d="M240 0v900h225v-349h626v349h225v-900h-225v389h-626v-389h-225z" />
<glyph unicode="i" horiz-adv-x="704" d="M240 0v900h225v-900h-225z" />
<glyph unicode="j" horiz-adv-x="1186" d="M80 189v205l225 32v-247h417v721h225v-716q0 -99 -52 -141.5t-182 -42.5h-399q-130 0 -182 43.5t-52 145.5z" />
<glyph unicode="k" horiz-adv-x="1368" d="M240 0v900h225v-348l423 348h292l-512 -421l621 -479h-333l-491 379v-379h-225z" />
<glyph unicode="l" horiz-adv-x="1197" d="M240 0v900h225v-721h679v-179h-904z" />
<glyph unicode="m" horiz-adv-x="1641" d="M240 0v900h240l342 -518l343 518h237v-900h-225v571l-306 -462h-120l-286 433v-542h-225z" />
<glyph unicode="n" horiz-adv-x="1559" d="M240 0v900h256l599 -643v643h225v-900h-271l-584 627v-627h-225z" />
<glyph unicode="o" horiz-adv-x="1583" d="M240 184v540q0 94 52.5 135t178.5 41h642q126 0 178.5 -41t52.5 -135v-540q0 -99 -51.5 -141.5t-179.5 -42.5h-642q-128 0 -179.5 42.5t-51.5 141.5zM465 179h654v551h-654v-551z" />
<glyph unicode="p" horiz-adv-x="1309" d="M240 0v900h758q127 0 179.5 -42.5t52.5 -138.5v-206q0 -172 -228 -172h-537v-341h-225zM465 503h458q34 0 58 21t24 52v81q0 31 -24 52t-58 21h-458v-227z" />
<glyph unicode="q" horiz-adv-x="1583" d="M240 184v540q0 94 52.5 135t178.5 41h642q126 0 178.5 -41t52.5 -135v-540q0 -99 -51 -141.5t-177 -42.5h-77l88 -192h-196l-87 192h-373q-128 0 -179.5 42.5t-51.5 141.5zM465 179h297l-89 194l162 73l122 -267h162v551h-654v-551z" />
<glyph unicode="r" horiz-adv-x="1416" d="M240 0v900h758q127 0 179.5 -42.5t52.5 -138.5v-206q0 -172 -214 -172h-88l369 -341l-264 -14l-385 355h-183v-341h-225zM465 503h458q34 0 58 21t24 52v81q0 31 -24 52t-58 21h-458v-227z" />
<glyph unicode="s" horiz-adv-x="1469" d="M240 189v71l225 30v-111h540v210h-537q-126 0 -177 43.5t-51 143.5v145q0 95 52.5 137t179.5 42h526q127 0 179.5 -42.5t52.5 -139.5v-43l-225 -29v84h-540v-179h537q125 0 176.5 -41.5t51.5 -136.5v-187q0 -99 -52 -142.5t-180 -43.5h-526q-128 0 -180 44t-52 145z" />
<glyph unicode="t" horiz-adv-x="1080" d="M27 730v170h1027v-170h-401v-730h-225v730h-401z" />
<glyph unicode="u" horiz-adv-x="1510" d="M240 184v716h225v-721h581v721h225v-716q0 -99 -52 -141.5t-180 -42.5h-567q-128 0 -180 42.5t-52 141.5z" />
<glyph unicode="v" horiz-adv-x="1222" d="M44 900h241l352 -616l325 616h217l-475 -900h-146z" />
<glyph unicode="w" horiz-adv-x="1585" d="M22 900h231l252 -554l228 554h142l252 -555l228 555h208l-370 -900h-140l-253 558l-230 -558h-139z" />
<glyph unicode="x" horiz-adv-x="1327" d="M80 900h291l295 -302l268 302h256l-391 -439l450 -461h-292l-297 305l-271 -305h-255l393 442z" />
<glyph unicode="y" horiz-adv-x="1159" d="M27 900h284l299 -323l273 323h250l-408 -482v-418h-225v388z" />
<glyph unicode="z" horiz-adv-x="1145" d="M80 0v123l675 611h-614v170h925v-146l-641 -579h641v-179h-986z" />
<glyph unicode="{" horiz-adv-x="670" d="M30 390v140h78q32 0 53 21t21 54v470q0 91 52 133t178 42h168v-150h-118q-32 0 -53 -21t-21 -54v-400q0 -70 -29 -110t-97 -55q67 -16 96.5 -58.5t29.5 -116.5v-375q0 -35 22.5 -57.5t57.5 -22.5h112v-160h-168q-125 0 -177.5 44t-52.5 141v455q0 35 -22.5 57.5 t-57.5 22.5h-72z" />
<glyph unicode="|" horiz-adv-x="745" d="M270 -488v2048h205v-2048h-205z" />
<glyph unicode="}" horiz-adv-x="670" d="M90 -170h112q35 0 57.5 22.5t22.5 57.5v375q0 74 29.5 116.5t96.5 58.5q-68 15 -97 55t-29 110v400q0 33 -21 54t-53 21h-118v150h168q126 0 178 -42t52 -133v-470q0 -33 21 -54t53 -21h78v-140h-72q-35 0 -57.5 -22.5t-22.5 -57.5v-455q0 -97 -52.5 -141t-177.5 -44 h-168v160z" />
<glyph unicode="~" horiz-adv-x="1400" d="M160 580v169q138 85 279 85q70 0 147.5 -20t133.5 -44t123 -44t118 -20q116 0 239 86l40 28v-169q-138 -85 -279 -85q-70 0 -147.5 20t-133.5 44t-123 44t-118 20q-116 0 -239 -86z" />
<glyph unicode="&#xa1;" horiz-adv-x="735" d="M495 1000v-55q0 -75 -12.5 -87.5t-87.5 -12.5h-55q-75 0 -87.5 12.5t-12.5 87.5v55q0 75 12.5 87.5t87.5 12.5h55q75 0 87.5 -12.5t12.5 -87.5zM495 0h-255l23 710h210z" />
<glyph unicode="&#xa2;" horiz-adv-x="1580" d="M330 205v420q0 103 55.5 149t194.5 46h286l70 202h126l-69 -202h7q139 0 194.5 -46t55.5 -149v-93l-225 -37v155h-91l-161 -470h252v155l225 -37v-93q0 -109 -56 -157t-194 -48h-289l-67 -192h-126l66 192h-4q-138 0 -194 48t-56 157zM555 180h91l161 470h-252v-470z" />
<glyph unicode="&#xa3;" horiz-adv-x="1580" d="M180 0v180h70q54 0 83 25t29 65v200h-182v160h182v275q0 195 250 195h403q250 0 250 -195v-130l-225 -37v192h-452v-300h262v-160h-262v-200q0 -40 29 -65t83 -25h452q55 0 84 25t29 65v78l225 -38v-115q0 -195 -250 -195h-520q-215 0 -245 143q-30 -143 -245 -143h-50z " />
<glyph unicode="&#xa4;" horiz-adv-x="1580" d="M375 516l84 65q-11 27 -11 60v239q0 27 7 50l-80 62l85 111l103 -79q41 11 95 11h264q62 0 106 -15l104 80l73 -95l-84 -65q11 -27 11 -60v-239q0 -27 -7 -50l80 -62l-85 -111l-103 80q-41 -12 -95 -12h-264q-62 0 -106 15l-104 -80zM633 616h314v289h-314v-289z" />
<glyph unicode="&#xa5;" horiz-adv-x="1580" d="M159 1100h271l395 -446l361 446h235l-306 -365h260v-120h-361l-80 -96v-34h441v-120h-441v-365h-225v365h-504v120h504v15l-106 115h-398v120h288z" />
<glyph unicode="&#xa6;" horiz-adv-x="745" d="M270 436h205v-924h-205v924zM270 636v924h205v-924h-205z" />
<glyph unicode="&#xa7;" horiz-adv-x="1260" d="M180 520v70q0 73 26 115q-26 42 -26 115v85q0 103 55.5 149t194.5 46h385q139 0 194.5 -46t55.5 -149v-13l-225 -37v75h-435v-145h425q139 0 194.5 -46t55.5 -149v-60q0 -80 -28 -125q28 -45 28 -125v-75q0 -109 -56 -157t-194 -48h-385q-138 0 -194 48t-56 157v13 l225 37v-75h435v145h-425q-139 0 -194.5 46t-55.5 149zM405 485h450v140h-450v-140z" />
<glyph unicode="&#xa8;" horiz-adv-x="980" d="M240 1287v56q0 50 8.5 58.5t58.5 8.5h56q50 0 58.5 -8.5t8.5 -58.5v-56q0 -50 -8.5 -58.5t-58.5 -8.5h-56q-50 0 -58.5 8.5t-8.5 58.5zM550 1287v56q0 50 8.5 58.5t58.5 8.5h56q50 0 58.5 -8.5t8.5 -58.5v-56q0 -50 -8.5 -58.5t-58.5 -8.5h-56q-50 0 -58.5 8.5t-8.5 58.5 z" />
<glyph unicode="&#xa9;" horiz-adv-x="1845" d="M180 155v940q0 71 52.5 113t157.5 42h1065q105 0 157.5 -42t52.5 -113v-940q0 -71 -52.5 -113t-157.5 -42h-1065q-105 0 -157.5 42t-52.5 113zM365 130h1115v990h-1115v-990zM495 400v460q0 71 52.5 113t157.5 42h435q105 0 157.5 -42t52.5 -113v-112l-185 -38v175h-485 v-510h485v175l185 -38v-112q0 -73 -53 -119t-157 -46h-435q-104 0 -157 46t-53 119z" />
<glyph unicode="&#xaa;" horiz-adv-x="1435" d="M80 0l524 900h228l524 -900h-243l-111 190h-590l-110 -190h-222zM507 352h401l-201 344z" />
<glyph unicode="&#xab;" horiz-adv-x="996" d="M493 480l279 279l135 -134l-145 -145l145 -145l-135 -134zM90 480l279 279l135 -134l-145 -145l145 -145l-135 -134z" />
<glyph unicode="&#xac;" horiz-adv-x="1620" d="M270 670v140h1080v-500h-185v360h-895z" />
<glyph unicode="&#xad;" horiz-adv-x="512" d="M90 480l12 140h320l-12 -140h-320z" />
<glyph unicode="&#xae;" horiz-adv-x="1845" d="M180 155v940q0 71 52.5 113t157.5 42h1065q105 0 157.5 -42t52.5 -113v-940q0 -71 -52.5 -113t-157.5 -42h-1065q-105 0 -157.5 42t-52.5 113zM365 130h1115v990h-1115v-990zM514 235v780h605q106 0 158 -42t52 -113v-168q0 -64 -52.5 -104.5t-157.5 -40.5h-79l318 -312 h-197l-304 312h-158v-312h-185zM699 667h353q40 0 66 26.5t26 66.5v32q0 41 -26 67t-66 26h-353v-218z" />
<glyph unicode="&#xaf;" horiz-adv-x="980" d="M180 1220v140h620v-140h-620z" />
<glyph unicode="&#xb0;" horiz-adv-x="665" d="M40 955v140q0 71 52.5 113t157.5 42h165q105 0 157.5 -42t52.5 -113v-140q0 -71 -52.5 -113t-157.5 -42h-165q-105 0 -157.5 42t-52.5 113zM225 930h215v190h-215v-190z" />
<glyph unicode="&#xb1;" horiz-adv-x="1620" d="M270 20v140h1080v-140h-1080zM270 630v140h448v330h184v-330h448v-140h-448v-330h-184v330h-448z" />
<glyph unicode="&#xb2;" horiz-adv-x="965" d="M180 690v44q0 49 14.5 74.5t54.5 50.5l323 203v48h-180v-52l-184 30v10q0 71 45.5 106.5t151.5 35.5h155q106 0 152 -35.5t46 -106.5q0 -33 -15 -56.5t-54 -47.5l-261 -164h357v-140h-605z" />
<glyph unicode="&#xb3;" horiz-adv-x="965" d="M180 832v30l185 30v-62h235q-2 38 -28 63t-64 25h-46v120h30q35 0 60 20t31 52h-203v-52l-185 30v10q0 71 46 106.5t151 35.5h182q106 0 151 -37t45 -102q0 -40 -35 -75t-103 -47q76 -11 114.5 -47.5t38.5 -85.5q0 -81 -42.5 -118.5t-154.5 -37.5h-210q-106 0 -152 35.5 t-46 106.5z" />
<glyph unicode="&#xb4;" horiz-adv-x="700" d="M90 906l345 488h175l-350 -488h-170z" />
<glyph unicode="&#xb5;" horiz-adv-x="1641" d="M240 0v900h240l342 -518l343 518h237v-900h-225v571l-306 -462h-120l-286 433v-542h-225z" />
<glyph unicode="&#xb6;" horiz-adv-x="1510" d="M90 640v245q0 114 61 164.5t209 50.5h880v-1100h-245v910h-125v-910h-245v435h-265q-270 0 -270 205z" />
<glyph unicode="&#xb7;" horiz-adv-x="465" d="M90 438v84q0 76 12.5 88t87.5 12h85q75 0 87.5 -12t12.5 -88v-84q0 -76 -12.5 -88t-87.5 -12h-85q-75 0 -87.5 12t-12.5 88z" />
<glyph unicode="&#xb8;" horiz-adv-x="689" d="M180 -270v-120h420l-313 312l-84 -84l107 -108h-130z" />
<glyph unicode="&#xb9;" horiz-adv-x="965" d="M345 1090v90l300 70v-560h-185v400h-115z" />
<glyph unicode="&#xba;" horiz-adv-x="1583" d="M240 184v540q0 94 52.5 135t178.5 41h642q126 0 178.5 -41t52.5 -135v-540q0 -99 -51.5 -141.5t-179.5 -42.5h-642q-128 0 -179.5 42.5t-51.5 141.5zM465 179h654v551h-654v-551z" />
<glyph unicode="&#xbb;" horiz-adv-x="996" d="M504 480l-279 -279l-135 134l145 145l-145 145l135 134zM907 480l-279 -279l-135 134l145 145l-145 145l135 134z" />
<glyph unicode="&#xbc;" horiz-adv-x="1525" d="M160 0l1000 1100h169l-1000 -1100h-169zM225 950v90l300 70v-560h-185v400h-115zM728 110v120l369 320h185v-320h83v-120h-83v-110h-185v110h-369zM911 230h186v161z" />
<glyph unicode="&#xbd;" d="M160 0l1000 1100h169l-1000 -1100h-169zM225 950v90l300 70v-560h-185v400h-115zM805 0v44q0 49 14.5 74.5t54.5 50.5l323 203v48h-180v-52l-184 30v10q0 71 45.5 106.5t151.5 35.5h155q106 0 152 -35.5t46 -106.5q0 -33 -15 -56.5t-54 -47.5l-261 -164h357v-140h-605z " />
<glyph unicode="&#xbe;" horiz-adv-x="1630" d="M832 110v120l369 320h185v-320h83v-120h-83v-110h-185v110h-369zM1015 230h186v161zM160 692v30l185 30v-62h235q-2 38 -28 63t-64 25h-46v120h30q35 0 60 20t31 52h-203v-52l-185 30v10q0 71 46 106.5t151 35.5h182q106 0 151 -37t45 -102q0 -40 -35 -75t-103 -47 q76 -11 114.5 -47.5t38.5 -85.5q0 -81 -42.5 -118.5t-154.5 -37.5h-210q-106 0 -152 35.5t-46 106.5zM265 0l1000 1100h169l-1000 -1100h-169z" />
<glyph unicode="&#xbf;" horiz-adv-x="1055" d="M975 288v-93q0 -103 -55.5 -149t-194.5 -46h-395q-139 0 -194.5 46t-55.5 149v225q0 103 55.5 149t194.5 46h100v85l240 40v-90q0 -114 -61 -164.5t-209 -50.5h-95v-265h445v155zM677 1000v-55q0 -75 -12 -87.5t-88 -12.5h-54q-76 0 -88 12.5t-12 87.5v55q0 75 12 87.5 t88 12.5h54q76 0 88 -12.5t12 -87.5z" />
<glyph unicode="&#xc0;" horiz-adv-x="1651" d="M566 1710h175l345 -488h-170zM90 0l610 1100h251l610 -1100h-263l-133 240h-702l-133 -240h-240zM563 420h502l-251 453z" />
<glyph unicode="&#xc1;" horiz-adv-x="1651" d="M566 1222l345 488h175l-350 -488h-170zM90 0l610 1100h251l610 -1100h-263l-133 240h-702l-133 -240h-240zM563 420h502l-251 453z" />
<glyph unicode="&#xc2;" horiz-adv-x="1651" d="M406 1222l323 290h192l323 -290h-224l-209 173l-210 -173h-195zM90 0l610 1100h251l610 -1100h-263l-133 240h-702l-133 -240h-240zM563 420h502l-251 453z" />
<glyph unicode="&#xc3;" horiz-adv-x="1651" d="M371 1231v155q124 91 244 91q48 0 97.5 -14t90 -33.5t79 -39.5t79 -34t76.5 -14q94 0 205 94l39 32v-155q-124 -91 -244 -91q-48 0 -97.5 14t-90 34t-79 39.5t-79 33.5t-76.5 14q-94 0 -205 -93zM90 0l610 1100h251l610 -1100h-263l-133 240h-702l-133 -240h-240z M563 420h502l-251 453z" />
<glyph unicode="&#xc4;" horiz-adv-x="1651" d="M576 1289v56q0 50 8.5 58.5t58.5 8.5h56q50 0 58.5 -8.5t8.5 -58.5v-56q0 -50 -8.5 -58.5t-58.5 -8.5h-56q-50 0 -58.5 8.5t-8.5 58.5zM886 1289v56q0 50 8.5 58.5t58.5 8.5h56q50 0 58.5 -8.5t8.5 -58.5v-56q0 -50 -8.5 -58.5t-58.5 -8.5h-56q-50 0 -58.5 8.5t-8.5 58.5 zM90 0l610 1100h251l610 -1100h-263l-133 240h-702l-133 -240h-240zM563 420h502l-251 453z" />
<glyph unicode="&#xc5;" horiz-adv-x="1651" d="M533 1240v140q0 71 52.5 113t157.5 42h165q105 0 157.5 -42t52.5 -113v-140q0 -71 -52.5 -113t-157.5 -42h-165q-105 0 -157.5 42t-52.5 113zM718 1215h215v190h-215v-190zM90 0l610 1100h251l610 -1100h-263l-133 240h-702l-133 -240h-240zM563 420h502l-251 453z" />
<glyph unicode="&#xc6;" horiz-adv-x="2205" d="M30 0l836 1100h1149v-190h-683v-245h458v-180h-458v-285h693v-200h-938v305h-562l-231 -305h-264zM662 485h425v425h-102z" />
<glyph unicode="&#xc7;" horiz-adv-x="1665" d="M738 -182v-120h420l-313 312l-84 -84l107 -108h-130zM270 225v660q0 114 61 164.5t209 50.5h610q148 0 209 -50.5t61 -164.5v-130l-245 -40v195h-660v-710h660v230l245 -40v-165q0 -121 -60 -173t-210 -52h-610q-150 0 -210 52t-60 173z" />
<glyph unicode="&#xc8;" horiz-adv-x="1540" d="M555 1710h175l345 -488h-170zM270 0v1100h1075v-190h-830v-245h560v-180h-560v-285h845v-200h-1090z" />
<glyph unicode="&#xc9;" horiz-adv-x="1540" d="M555 1222l345 488h175l-350 -488h-170zM270 0v1100h1075v-190h-830v-245h560v-180h-560v-285h845v-200h-1090z" />
<glyph unicode="&#xca;" horiz-adv-x="1540" d="M396 1222l323 290h192l323 -290h-224l-209 173l-210 -173h-195zM270 0v1100h1075v-190h-830v-245h560v-180h-560v-285h845v-200h-1090z" />
<glyph unicode="&#xcb;" horiz-adv-x="1540" d="M565 1289v56q0 50 8.5 58.5t58.5 8.5h56q50 0 58.5 -8.5t8.5 -58.5v-56q0 -50 -8.5 -58.5t-58.5 -8.5h-56q-50 0 -58.5 8.5t-8.5 58.5zM875 1289v56q0 50 8.5 58.5t58.5 8.5h56q50 0 58.5 -8.5t8.5 -58.5v-56q0 -50 -8.5 -58.5t-58.5 -8.5h-56q-50 0 -58.5 8.5t-8.5 58.5 zM270 0v1100h1075v-190h-830v-245h560v-180h-560v-285h845v-200h-1090z" />
<glyph unicode="&#xcc;" horiz-adv-x="785" d="M132 1710h175l345 -488h-170zM270 0v1100h245v-1100h-245z" />
<glyph unicode="&#xcd;" horiz-adv-x="785" d="M132 1222l345 488h175l-350 -488h-170zM270 0v1100h245v-1100h-245z" />
<glyph unicode="&#xce;" horiz-adv-x="785" d="M-27 1222l323 290h192l323 -290h-224l-209 173l-210 -173h-195zM270 0v1100h245v-1100h-245z" />
<glyph unicode="&#xcf;" horiz-adv-x="785" d="M142 1289v56q0 50 8.5 58.5t58.5 8.5h56q50 0 58.5 -8.5t8.5 -58.5v-56q0 -50 -8.5 -58.5t-58.5 -8.5h-56q-50 0 -58.5 8.5t-8.5 58.5zM452 1289v56q0 50 8.5 58.5t58.5 8.5h56q50 0 58.5 -8.5t8.5 -58.5v-56q0 -50 -8.5 -58.5t-58.5 -8.5h-56q-50 0 -58.5 8.5t-8.5 58.5 zM270 0v1100h245v-1100h-245z" />
<glyph unicode="&#xd0;" horiz-adv-x="1740" d="M180 485v180h90v435h705q114 0 211 -32t164.5 -86.5t115.5 -126.5t71 -153t23 -167q0 -82 -21.5 -159t-68 -145.5t-114 -119.5t-165.5 -81t-216 -30h-705v485h-90zM515 200h325q100 0 180.5 20.5t133 55.5t88 82.5t50.5 98.5t15 107q0 67 -22 128t-62.5 110t-106 78.5 t-146.5 29.5h-455v-245h180v-180h-180v-285z" />
<glyph unicode="&#xd1;" horiz-adv-x="1800" d="M445 1231v155q124 91 244 91q48 0 97.5 -14t90 -33.5t79 -39.5t79 -34t76.5 -14q94 0 205 94l39 32v-155q-124 -91 -244 -91q-48 0 -97.5 14t-90 34t-79 39.5t-79 33.5t-76.5 14q-94 0 -205 -93zM270 0v1100h279l736 -798v798h245v-1100h-279l-736 798v-798h-245z" />
<glyph unicode="&#xd2;" horiz-adv-x="1830" d="M655 1710h175l345 -488h-170zM270 225v660q0 114 61 164.5t209 50.5h750q148 0 209 -50.5t61 -164.5v-660q0 -121 -60 -173t-210 -52h-750q-150 0 -210 52t-60 173zM515 200h800v710h-800v-710z" />
<glyph unicode="&#xd3;" horiz-adv-x="1830" d="M655 1222l345 488h175l-350 -488h-170zM270 225v660q0 114 61 164.5t209 50.5h750q148 0 209 -50.5t61 -164.5v-660q0 -121 -60 -173t-210 -52h-750q-150 0 -210 52t-60 173zM515 200h800v710h-800v-710z" />
<glyph unicode="&#xd4;" horiz-adv-x="1830" d="M496 1222l323 290h192l323 -290h-224l-209 173l-210 -173h-195zM270 225v660q0 114 61 164.5t209 50.5h750q148 0 209 -50.5t61 -164.5v-660q0 -121 -60 -173t-210 -52h-750q-150 0 -210 52t-60 173zM515 200h800v710h-800v-710z" />
<glyph unicode="&#xd5;" horiz-adv-x="1830" d="M460 1231v155q124 91 244 91q48 0 97.5 -14t90 -33.5t79 -39.5t79 -34t76.5 -14q94 0 205 94l39 32v-155q-124 -91 -244 -91q-48 0 -97.5 14t-90 34t-79 39.5t-79 33.5t-76.5 14q-94 0 -205 -93zM270 225v660q0 114 61 164.5t209 50.5h750q148 0 209 -50.5t61 -164.5 v-660q0 -121 -60 -173t-210 -52h-750q-150 0 -210 52t-60 173zM515 200h800v710h-800v-710z" />
<glyph unicode="&#xd6;" horiz-adv-x="1830" d="M665 1289v56q0 50 8.5 58.5t58.5 8.5h56q50 0 58.5 -8.5t8.5 -58.5v-56q0 -50 -8.5 -58.5t-58.5 -8.5h-56q-50 0 -58.5 8.5t-8.5 58.5zM975 1289v56q0 50 8.5 58.5t58.5 8.5h56q50 0 58.5 -8.5t8.5 -58.5v-56q0 -50 -8.5 -58.5t-58.5 -8.5h-56q-50 0 -58.5 8.5t-8.5 58.5 zM270 225v660q0 114 61 164.5t209 50.5h750q148 0 209 -50.5t61 -164.5v-660q0 -121 -60 -173t-210 -52h-750q-150 0 -210 52t-60 173zM515 200h800v710h-800v-710z" />
<glyph unicode="&#xd7;" horiz-adv-x="1620" d="M270 1001l99 99l448 -448l441 441l85 -85l-441 -441l448 -448l-99 -99l-448 448l-441 -441l-85 85l441 441z" />
<glyph unicode="&#xd8;" horiz-adv-x="1830" d="M431 165l869 869l99 -99l-869 -869zM270 225v660q0 114 61 164.5t209 50.5h750q148 0 209 -50.5t61 -164.5v-660q0 -121 -60 -173t-210 -52h-750q-150 0 -210 52t-60 173zM515 200h800v710h-800v-710z" />
<glyph unicode="&#xd9;" horiz-adv-x="1740" d="M610 1710h175l345 -488h-170zM270 225v875h245v-900h710v900h245v-875q0 -121 -60 -173t-210 -52h-660q-150 0 -210 52t-60 173z" />
<glyph unicode="&#xda;" horiz-adv-x="1740" d="M610 1222l345 488h175l-350 -488h-170zM270 225v875h245v-900h710v900h245v-875q0 -121 -60 -173t-210 -52h-660q-150 0 -210 52t-60 173z" />
<glyph unicode="&#xdb;" horiz-adv-x="1740" d="M451 1222l323 290h192l323 -290h-224l-209 173l-210 -173h-195zM270 225v875h245v-900h710v900h245v-875q0 -121 -60 -173t-210 -52h-660q-150 0 -210 52t-60 173z" />
<glyph unicode="&#xdc;" horiz-adv-x="1740" d="M620 1289v56q0 50 8.5 58.5t58.5 8.5h56q50 0 58.5 -8.5t8.5 -58.5v-56q0 -50 -8.5 -58.5t-58.5 -8.5h-56q-50 0 -58.5 8.5t-8.5 58.5zM930 1289v56q0 50 8.5 58.5t58.5 8.5h56q50 0 58.5 -8.5t8.5 -58.5v-56q0 -50 -8.5 -58.5t-58.5 -8.5h-56q-50 0 -58.5 8.5t-8.5 58.5 zM270 225v875h245v-900h710v900h245v-875q0 -121 -60 -173t-210 -52h-660q-150 0 -210 52t-60 173z" />
<glyph unicode="&#xdd;" horiz-adv-x="1362" d="M421 1222l345 488h175l-350 -488h-170zM30 1100h312l374 -408l342 408h274l-497 -592v-508h-245v488z" />
<glyph unicode="&#xde;" horiz-adv-x="1505" d="M270 0v1100h245v-175h630q148 0 209 -50.5t61 -164.5v-245q0 -205 -270 -205h-630v-260h-245zM515 440h555q40 0 70 38.5t30 81.5v80q0 41 -29 68t-71 27h-555v-295z" />
<glyph unicode="&#xdf;" horiz-adv-x="1455" d="M150 0v180q39 0 64.5 25.5t25.5 64.5v635q0 195 250 195h350q250 0 250 -195v-145q0 -69 -36 -112q161 -31 161 -178v-265q0 -102 -60 -153.5t-190 -51.5h-360v180h385v315h-405v160h167q49 0 81 32t32 81v162h-400v-725q0 -102 -60 -153.5t-190 -51.5h-65zM585 495v160 v-160z" />
<glyph unicode="&#xe0;" horiz-adv-x="1435" d="M458 1510h175l345 -488h-170zM80 0l524 900h228l524 -900h-243l-111 190h-590l-110 -190h-222zM507 352h401l-201 344z" />
<glyph unicode="&#xe1;" horiz-adv-x="1435" d="M458 1022l345 488h175l-350 -488h-170zM80 0l524 900h228l524 -900h-243l-111 190h-590l-110 -190h-222zM507 352h401l-201 344z" />
<glyph unicode="&#xe2;" horiz-adv-x="1435" d="M299 1022l323 290h192l323 -290h-224l-209 173l-210 -173h-195zM80 0l524 900h228l524 -900h-243l-111 190h-590l-110 -190h-222zM507 352h401l-201 344z" />
<glyph unicode="&#xe3;" horiz-adv-x="1435" d="M263 1031v155q124 91 244 91q48 0 97.5 -14t90 -33.5t79 -39.5t79 -34t76.5 -14q94 0 205 94l39 32v-155q-124 -91 -244 -91q-48 0 -97.5 14t-90 34t-79 39.5t-79 33.5t-76.5 14q-94 0 -205 -93zM80 0l524 900h228l524 -900h-243l-111 190h-590l-110 -190h-222zM507 352 h401l-201 344z" />
<glyph unicode="&#xe4;" horiz-adv-x="1435" d="M468 1089v56q0 50 8.5 58.5t58.5 8.5h56q50 0 58.5 -8.5t8.5 -58.5v-56q0 -50 -8.5 -58.5t-58.5 -8.5h-56q-50 0 -58.5 8.5t-8.5 58.5zM778 1089v56q0 50 8.5 58.5t58.5 8.5h56q50 0 58.5 -8.5t8.5 -58.5v-56q0 -50 -8.5 -58.5t-58.5 -8.5h-56q-50 0 -58.5 8.5t-8.5 58.5 zM80 0l524 900h228l524 -900h-243l-111 190h-590l-110 -190h-222zM507 352h401l-201 344z" />
<glyph unicode="&#xe5;" horiz-adv-x="1435" d="M426 1177v140q0 71 52.5 113t157.5 42h165q105 0 157.5 -42t52.5 -113v-140q0 -71 -52.5 -113t-157.5 -42h-165q-105 0 -157.5 42t-52.5 113zM611 1152h215v190h-215v-190zM80 0l524 900h228l524 -900h-243l-111 190h-590l-110 -190h-222zM507 352h401l-201 344z" />
<glyph unicode="&#xe6;" horiz-adv-x="1879" d="M27 0l704 901h981v-170h-559v-180h374v-162h-374v-210h567v-179h-792v249h-464l-195 -249h-242zM590 411h338v320h-87z" />
<glyph unicode="&#xe7;" horiz-adv-x="1447" d="M628 -182v-120h420l-313 312l-84 -84l107 -108h-130zM240 184v540q0 94 52.5 135t179.5 41h526q127 0 179.5 -42.5t52.5 -138.5v-109l-225 -31v151h-540v-551h540v178l225 -31v-138q0 -101 -52 -144.5t-180 -43.5h-526q-128 0 -180 42.5t-52 141.5z" />
<glyph unicode="&#xe8;" horiz-adv-x="1315" d="M432 1510h175l345 -488h-170zM240 0v900h904v-170h-679v-179h458v-162h-458v-210h691v-179h-916z" />
<glyph unicode="&#xe9;" horiz-adv-x="1315" d="M432 1022l345 488h175l-350 -488h-170zM240 0v900h904v-170h-679v-179h458v-162h-458v-210h691v-179h-916z" />
<glyph unicode="&#xea;" horiz-adv-x="1315" d="M273 1022l323 290h192l323 -290h-224l-209 173l-210 -173h-195zM240 0v900h904v-170h-679v-179h458v-162h-458v-210h691v-179h-916z" />
<glyph unicode="&#xeb;" horiz-adv-x="1315" d="M442 1089v56q0 50 8.5 58.5t58.5 8.5h56q50 0 58.5 -8.5t8.5 -58.5v-56q0 -50 -8.5 -58.5t-58.5 -8.5h-56q-50 0 -58.5 8.5t-8.5 58.5zM752 1089v56q0 50 8.5 58.5t58.5 8.5h56q50 0 58.5 -8.5t8.5 -58.5v-56q0 -50 -8.5 -58.5t-58.5 -8.5h-56q-50 0 -58.5 8.5t-8.5 58.5 zM240 0v900h904v-170h-679v-179h458v-162h-458v-210h691v-179h-916z" />
<glyph unicode="&#xec;" horiz-adv-x="705" d="M92 1430h175l345 -488h-170zM240 0v800h225v-800h-225z" />
<glyph unicode="&#xed;" horiz-adv-x="705" d="M92 942l345 488h175l-350 -488h-170zM240 0v800h225v-800h-225z" />
<glyph unicode="&#xee;" horiz-adv-x="705" d="M-67 942l323 290h192l323 -290h-224l-209 173l-210 -173h-195zM240 0v800h225v-800h-225z" />
<glyph unicode="&#xef;" horiz-adv-x="705" d="M102 1009v56q0 50 8.5 58.5t58.5 8.5h56q50 0 58.5 -8.5t8.5 -58.5v-56q0 -50 -8.5 -58.5t-58.5 -8.5h-56q-50 0 -58.5 8.5t-8.5 58.5zM412 1009v56q0 50 8.5 58.5t58.5 8.5h56q50 0 58.5 -8.5t8.5 -58.5v-56q0 -50 -8.5 -58.5t-58.5 -8.5h-56q-50 0 -58.5 8.5t-8.5 58.5 zM240 0v800h225v-800h-225z" />
<glyph unicode="&#xf0;" horiz-adv-x="1500" d="M160 389v162h74v350h604q121 0 219 -39.5t158.5 -106t92.5 -147.5t32 -169q0 -86 -30.5 -163t-89.5 -139.5t-157.5 -99.5t-224.5 -37h-604v389h-74zM459 179h266q102 0 178.5 24t119.5 65.5t63.5 90t20.5 103.5q0 110 -73 189.5t-203 79.5h-372v-180h147v-162h-147v-210z " />
<glyph unicode="&#xf1;" horiz-adv-x="1559" d="M325 1031v155q124 91 244 91q48 0 97.5 -14t90 -33.5t79 -39.5t79 -34t76.5 -14q94 0 205 94l39 32v-155q-124 -91 -244 -91q-48 0 -97.5 14t-90 34t-79 39.5t-79 33.5t-76.5 14q-94 0 -205 -93zM240 0v900h256l599 -643v643h225v-900h-271l-584 627v-627h-225z" />
<glyph unicode="&#xf2;" horiz-adv-x="1583" d="M532 1510h175l345 -488h-170zM240 184v540q0 94 52.5 135t178.5 41h642q126 0 178.5 -41t52.5 -135v-540q0 -99 -51.5 -141.5t-179.5 -42.5h-642q-128 0 -179.5 42.5t-51.5 141.5zM465 179h654v551h-654v-551z" />
<glyph unicode="&#xf3;" horiz-adv-x="1583" d="M532 1022l345 488h175l-350 -488h-170zM240 184v540q0 94 52.5 135t178.5 41h642q126 0 178.5 -41t52.5 -135v-540q0 -99 -51.5 -141.5t-179.5 -42.5h-642q-128 0 -179.5 42.5t-51.5 141.5zM465 179h654v551h-654v-551z" />
<glyph unicode="&#xf4;" horiz-adv-x="1583" d="M373 1022l323 290h192l323 -290h-224l-209 173l-210 -173h-195zM240 184v540q0 94 52.5 135t178.5 41h642q126 0 178.5 -41t52.5 -135v-540q0 -99 -51.5 -141.5t-179.5 -42.5h-642q-128 0 -179.5 42.5t-51.5 141.5zM465 179h654v551h-654v-551z" />
<glyph unicode="&#xf5;" horiz-adv-x="1583" d="M337 1031v155q124 91 244 91q48 0 97.5 -14t90 -33.5t79 -39.5t79 -34t76.5 -14q94 0 205 94l39 32v-155q-124 -91 -244 -91q-48 0 -97.5 14t-90 34t-79 39.5t-79 33.5t-76.5 14q-94 0 -205 -93zM240 184v540q0 94 52.5 135t178.5 41h642q126 0 178.5 -41t52.5 -135v-540 q0 -99 -51.5 -141.5t-179.5 -42.5h-642q-128 0 -179.5 42.5t-51.5 141.5zM465 179h654v551h-654v-551z" />
<glyph unicode="&#xf6;" horiz-adv-x="1583" d="M542 1089v56q0 50 8.5 58.5t58.5 8.5h56q50 0 58.5 -8.5t8.5 -58.5v-56q0 -50 -8.5 -58.5t-58.5 -8.5h-56q-50 0 -58.5 8.5t-8.5 58.5zM852 1089v56q0 50 8.5 58.5t58.5 8.5h56q50 0 58.5 -8.5t8.5 -58.5v-56q0 -50 -8.5 -58.5t-58.5 -8.5h-56q-50 0 -58.5 8.5t-8.5 58.5 zM240 184v540q0 94 52.5 135t178.5 41h642q126 0 178.5 -41t52.5 -135v-540q0 -99 -51.5 -141.5t-179.5 -42.5h-642q-128 0 -179.5 42.5t-51.5 141.5zM465 179h654v551h-654v-551z" />
<glyph unicode="&#xf7;" horiz-adv-x="1620" d="M270 490v140h1080v-140h-1080zM668 120v85q0 75 12 87.5t88 12.5h84q76 0 88 -12.5t12 -87.5v-85q0 -75 -12 -87.5t-88 -12.5h-84q-76 0 -88 12.5t-12 87.5zM668 915v85q0 75 12 87.5t88 12.5h84q76 0 88 -12.5t12 -87.5v-85q0 -75 -12 -87.5t-88 -12.5h-84 q-76 0 -88 12.5t-12 87.5z" />
<glyph unicode="&#xf8;" horiz-adv-x="1584" d="M240 184v540q0 94 52.5 135t178.5 41h642q126 0 178.5 -41t52.5 -135v-540q0 -99 -51.5 -141.5t-179.5 -42.5h-642q-128 0 -179.5 42.5t-51.5 141.5zM465 179h654v551h-654v-551zM435 192l615 615l99 -99l-615 -615z" />
<glyph unicode="&#xf9;" horiz-adv-x="1510" d="M496 1510h175l345 -488h-170zM240 184v716h225v-721h581v721h225v-716q0 -99 -52 -141.5t-180 -42.5h-567q-128 0 -180 42.5t-52 141.5z" />
<glyph unicode="&#xfa;" horiz-adv-x="1510" d="M496 1022l345 488h175l-350 -488h-170zM240 184v716h225v-721h581v721h225v-716q0 -99 -52 -141.5t-180 -42.5h-567q-128 0 -180 42.5t-52 141.5z" />
<glyph unicode="&#xfb;" horiz-adv-x="1510" d="M336 1022l323 290h192l323 -290h-224l-209 173l-210 -173h-195zM240 184v716h225v-721h581v721h225v-716q0 -99 -52 -141.5t-180 -42.5h-567q-128 0 -180 42.5t-52 141.5z" />
<glyph unicode="&#xfc;" horiz-adv-x="1510" d="M506 1089v56q0 50 8.5 58.5t58.5 8.5h56q50 0 58.5 -8.5t8.5 -58.5v-56q0 -50 -8.5 -58.5t-58.5 -8.5h-56q-50 0 -58.5 8.5t-8.5 58.5zM816 1089v56q0 50 8.5 58.5t58.5 8.5h56q50 0 58.5 -8.5t8.5 -58.5v-56q0 -50 -8.5 -58.5t-58.5 -8.5h-56q-50 0 -58.5 8.5t-8.5 58.5 zM240 184v716h225v-721h581v721h225v-716q0 -99 -52 -141.5t-180 -42.5h-567q-128 0 -180 42.5t-52 141.5z" />
<glyph unicode="&#xfd;" horiz-adv-x="1159" d="M320 1022l345 488h175l-350 -488h-170zM27 900h284l299 -323l273 323h250l-408 -482v-418h-225v388z" />
<glyph unicode="&#xfe;" horiz-adv-x="1305" d="M240 0v901h225v-138h533q125 0 176.5 -42t51.5 -138v-205q0 -171 -228 -171h-533v-207h-225zM465 369h454q33 0 57.5 29t24.5 62v60q0 31 -24 51.5t-58 20.5h-454v-223z" />
<glyph unicode="&#xff;" horiz-adv-x="1159" d="M330 1089v56q0 50 8.5 58.5t58.5 8.5h56q50 0 58.5 -8.5t8.5 -58.5v-56q0 -50 -8.5 -58.5t-58.5 -8.5h-56q-50 0 -58.5 8.5t-8.5 58.5zM640 1089v56q0 50 8.5 58.5t58.5 8.5h56q50 0 58.5 -8.5t8.5 -58.5v-56q0 -50 -8.5 -58.5t-58.5 -8.5h-56q-50 0 -58.5 8.5t-8.5 58.5 zM27 900h284l299 -323l273 323h250l-408 -482v-418h-225v388z" />
<glyph unicode="&#x131;" horiz-adv-x="705" d="M240 0v800h225v-800h-225z" />
<glyph unicode="&#x152;" horiz-adv-x="2116" d="M270 225v660q0 114 61 164.5t209 50.5h489h25h867v-190h-622v-245h420v-180h-420v-285h637v-200h-882h-25h-489q-150 0 -210 52t-60 173zM515 200h539v710h-539v-710z" />
<glyph unicode="&#x153;" horiz-adv-x="1812" d="M240 184v541q0 94 52 135t177 41h416h21h735v-170h-510v-180h344v-162h-344v-210h522v-179h-747h-21h-416q-127 0 -178 42.5t-51 141.5zM465 179h441v552h-441v-552z" />
<glyph unicode="&#x178;" horiz-adv-x="1362" d="M431 1289v56q0 50 8.5 58.5t58.5 8.5h56q50 0 58.5 -8.5t8.5 -58.5v-56q0 -50 -8.5 -58.5t-58.5 -8.5h-56q-50 0 -58.5 8.5t-8.5 58.5zM741 1289v56q0 50 8.5 58.5t58.5 8.5h56q50 0 58.5 -8.5t8.5 -58.5v-56q0 -50 -8.5 -58.5t-58.5 -8.5h-56q-50 0 -58.5 8.5t-8.5 58.5 zM30 1100h312l374 -408l342 408h274l-497 -592v-508h-245v488z" />
<glyph unicode="&#x2c6;" horiz-adv-x="1158" d="M160 1195l323 290h192l323 -290h-224l-209 173l-210 -173h-195z" />
<glyph unicode="&#x2da;" horiz-adv-x="665" d="M40 1245v140q0 71 52.5 113t157.5 42h165q105 0 157.5 -42t52.5 -113v-140q0 -71 -52.5 -113t-157.5 -42h-165q-105 0 -157.5 42t-52.5 113zM225 1220h215v190h-215v-190z" />
<glyph unicode="&#x2dc;" horiz-adv-x="1230" d="M160 1229v155q124 91 244 91q48 0 97.5 -14t90 -33.5t79 -39.5t79 -34t76.5 -14q94 0 205 94l39 32v-155q-124 -91 -244 -91q-48 0 -97.5 14t-90 34t-79 39.5t-79 33.5t-76.5 14q-94 0 -205 -93z" />
<glyph unicode="&#x300;" horiz-adv-x="700" d="M90 1394h175l345 -488h-170z" />
<glyph unicode="&#x301;" horiz-adv-x="700" d="M90 906l345 488h175l-350 -488h-170z" />
<glyph unicode="&#x302;" horiz-adv-x="1158" d="M160 1195l323 290h192l323 -290h-224l-209 173l-210 -173h-195z" />
<glyph unicode="&#x303;" horiz-adv-x="1230" d="M160 1229v155q124 91 244 91q48 0 97.5 -14t90 -33.5t79 -39.5t79 -34t76.5 -14q94 0 205 94l39 32v-155q-124 -91 -244 -91q-48 0 -97.5 14t-90 34t-79 39.5t-79 33.5t-76.5 14q-94 0 -205 -93z" />
<glyph unicode="&#x308;" horiz-adv-x="980" d="M240 1287v56q0 50 8.5 58.5t58.5 8.5h56q50 0 58.5 -8.5t8.5 -58.5v-56q0 -50 -8.5 -58.5t-58.5 -8.5h-56q-50 0 -58.5 8.5t-8.5 58.5zM550 1287v56q0 50 8.5 58.5t58.5 8.5h56q50 0 58.5 -8.5t8.5 -58.5v-56q0 -50 -8.5 -58.5t-58.5 -8.5h-56q-50 0 -58.5 8.5t-8.5 58.5 z" />
<glyph unicode="&#x327;" horiz-adv-x="689" d="M180 -270v-120h420l-313 312l-84 -84l107 -108h-130z" />
<glyph unicode="&#x337;" horiz-adv-x="1230" d="M258 222l615 615l99 -99l-615 -615z" />
<glyph unicode="&#x338;" horiz-adv-x="1230" d="M131 95l869 869l99 -99l-869 -869z" />
<glyph unicode="&#x3bc;" horiz-adv-x="1641" d="M240 0v900h240l342 -518l343 518h237v-900h-225v571l-306 -462h-120l-286 433v-542h-225z" />
<glyph unicode="&#x2000;" horiz-adv-x="855" />
<glyph unicode="&#x2001;" horiz-adv-x="1710" />
<glyph unicode="&#x2002;" horiz-adv-x="855" />
<glyph unicode="&#x2003;" horiz-adv-x="1710" />
<glyph unicode="&#x2004;" horiz-adv-x="570" />
<glyph unicode="&#x2005;" horiz-adv-x="427" />
<glyph unicode="&#x2006;" horiz-adv-x="285" />
<glyph unicode="&#x2007;" horiz-adv-x="285" />
<glyph unicode="&#x2008;" horiz-adv-x="213" />
<glyph unicode="&#x2009;" horiz-adv-x="342" />
<glyph unicode="&#x200a;" horiz-adv-x="95" />
<glyph unicode="&#x2010;" horiz-adv-x="512" d="M90 480l12 140h320l-12 -140h-320z" />
<glyph unicode="&#x2011;" horiz-adv-x="660" d="M90 485v180h480v-180h-480z" />
<glyph unicode="&#x2012;" horiz-adv-x="660" d="M90 485v180h480v-180h-480z" />
<glyph unicode="&#x2013;" horiz-adv-x="1024" d="M0 480l12 140h1012l-12 -140h-1012z" />
<glyph unicode="&#x2014;" horiz-adv-x="2048" d="M0 480l12 140h2036l-12 -140h-2036z" />
<glyph unicode="&#x2018;" horiz-adv-x="365" d="M325 1396l-151 -303h51q75 0 87.5 -12.5t12.5 -87.5v-35q0 -75 -12.5 -87.5t-87.5 -12.5h-85q-75 0 -87.5 12.5t-12.5 87.5v135l178 357z" />
<glyph unicode="&#x2019;" horiz-adv-x="365" d="M40 912l151 303h-51q-75 0 -87.5 12.5t-12.5 87.5v35q0 75 12.5 87.5t87.5 12.5h85q75 0 87.5 -12.5t12.5 -87.5v-135l-178 -357z" />
<glyph unicode="&#x201a;" horiz-adv-x="365" d="M40 -353l151 303h-51q-75 0 -87.5 12.5t-12.5 87.5v35q0 75 12.5 87.5t87.5 12.5h85q75 0 87.5 -12.5t12.5 -87.5v-135l-178 -357z" />
<glyph unicode="&#x201c;" horiz-adv-x="710" d="M670 1396l-151 -303h51q75 0 87.5 -12.5t12.5 -87.5v-35q0 -75 -12.5 -87.5t-87.5 -12.5h-85q-75 0 -87.5 12.5t-12.5 87.5v135l178 357zM325 1396l-151 -303h51q75 0 87.5 -12.5t12.5 -87.5v-35q0 -75 -12.5 -87.5t-87.5 -12.5h-85q-75 0 -87.5 12.5t-12.5 87.5v135 l178 357z" />
<glyph unicode="&#x201d;" horiz-adv-x="710" d="M385 912l151 303h-51q-75 0 -87.5 12.5t-12.5 87.5v35q0 75 12.5 87.5t87.5 12.5h85q75 0 87.5 -12.5t12.5 -87.5v-135l-178 -357zM40 912l151 303h-51q-75 0 -87.5 12.5t-12.5 87.5v35q0 75 12.5 87.5t87.5 12.5h85q75 0 87.5 -12.5t12.5 -87.5v-135l-178 -357z" />
<glyph unicode="&#x201e;" horiz-adv-x="710" d="M385 -353l151 303h-51q-75 0 -87.5 12.5t-12.5 87.5v35q0 75 12.5 87.5t87.5 12.5h85q75 0 87.5 -12.5t12.5 -87.5v-135l-178 -357zM40 -353l151 303h-51q-75 0 -87.5 12.5t-12.5 87.5v35q0 75 12.5 87.5t87.5 12.5h85q75 0 87.5 -12.5t12.5 -87.5v-135l-178 -357z" />
<glyph unicode="&#x2022;" horiz-adv-x="770" d="M160 496v28v26v26v28q0 7 1 26t2 27t3.5 23t6.5 23.5t10 18.5t13 17.5t17 13t18.5 9.5t23.5 6.5t23 4t27 2t25 0.5h29h27h26h28q6 0 25 -0.5t27 -2t23 -4t23.5 -6.5t18.5 -9.5t17.5 -13t13 -17.5t9.5 -18.5t6.5 -23.5t4 -23t2 -27t0.5 -26v-28v-26v-26v-28q0 -7 -0.5 -26 t-2 -27t-4 -23t-6.5 -23.5t-9.5 -18.5t-13 -17.5t-17.5 -13t-18.5 -9.5t-23.5 -6.5t-23 -4t-27 -2t-25 -0.5h-28h-26h-27h-29q-6 0 -25 0.5t-27 2t-23 4t-23.5 6.5t-18.5 9.5t-17 13t-13 17.5t-10 18.5t-6.5 23.5t-3.5 23t-2 27t-1 26z" />
<glyph unicode="&#x2026;" horiz-adv-x="2055" d="M1590 100v85q0 75 12.5 87.5t87.5 12.5h85q75 0 87.5 -12.5t12.5 -87.5v-85q0 -75 -12.5 -87.5t-87.5 -12.5h-85q-75 0 -87.5 12.5t-12.5 87.5zM885 100v85q0 75 12.5 87.5t87.5 12.5h85q75 0 87.5 -12.5t12.5 -87.5v-85q0 -75 -12.5 -87.5t-87.5 -12.5h-85 q-75 0 -87.5 12.5t-12.5 87.5zM180 100v85q0 75 12.5 87.5t87.5 12.5h85q75 0 87.5 -12.5t12.5 -87.5v-85q0 -75 -12.5 -87.5t-87.5 -12.5h-85q-75 0 -87.5 12.5t-12.5 87.5z" />
<glyph unicode="&#x202f;" horiz-adv-x="342" />
<glyph unicode="&#x2039;" horiz-adv-x="593" d="M90 480l279 279l135 -134l-145 -145l145 -145l-135 -134z" />
<glyph unicode="&#x203a;" horiz-adv-x="593" d="M504 480l-279 -279l-135 134l145 145l-145 145l135 134z" />
<glyph unicode="&#x2044;" horiz-adv-x="1248" d="M40 0l1000 1100h169l-1000 -1100h-169z" />
<glyph unicode="&#x205f;" horiz-adv-x="427" />
<glyph unicode="&#x2074;" horiz-adv-x="965" d="M164 800v120l369 320h185v-320h83v-120h-83v-110h-185v110h-369zM347 920h186v161z" />
<glyph unicode="&#x2082;" horiz-adv-x="965" d="M180 -140v44q0 49 14.5 74.5t54.5 50.5l323 203v48h-180v-52l-184 30v10q0 71 45.5 106.5t151.5 35.5h155q106 0 152 -35.5t46 -106.5q0 -33 -15 -56.5t-54 -47.5l-261 -164h357v-140h-605z" />
<glyph unicode="&#x2084;" horiz-adv-x="965" d="M164 -30v120l369 320h185v-320h83v-120h-83v-110h-185v110h-369zM347 90h186v161z" />
<glyph unicode="&#x20ac;" horiz-adv-x="1580" d="M30 370l56 120h94v130h-150l56 120h94v165q0 195 250 195h720q250 0 250 -195v-150l-225 -40v215h-770v-190h441l-56 -120h-385v-130h324l-56 -120h-268v-190h770v250l225 -40v-185q0 -102 -60 -153.5t-190 -51.5h-720q-130 0 -190 51.5t-60 153.5v165h-150z" />
<glyph unicode="&#x2122;" horiz-adv-x="1578" d="M30 970v130h612v-130h-213v-420h-185v420h-214zM777 550v550h195l166 -226l165 226h185v-550h-185v346l-136 -186h-83l-122 167v-327h-185z" />
<glyph unicode="&#x215f;" horiz-adv-x="1488" d="M160 0l1000 1100h169l-1000 -1100h-169zM225 950v90l300 70v-560h-185v400h-115z" />
<glyph unicode="&#xe000;" horiz-adv-x="900" d="M0 900h900v-900h-900v900z" />
<glyph unicode="&#xfb01;" horiz-adv-x="1874" d="M1410 0v900h225v-900h-225zM240 0v900h904v-170h-679v-227h458v-162h-458v-341h-225z" />
<glyph unicode="&#xfb02;" horiz-adv-x="2367" d="M1410 0v900h225v-721h679v-179h-904zM240 0v900h904v-170h-679v-227h458v-162h-458v-341h-225z" />
<glyph unicode="&#xfb03;" horiz-adv-x="3044" d="M2580 0v900h225v-900h-225zM1410 0v900h904v-170h-679v-227h458v-162h-458v-341h-225zM240 0v900h904v-170h-679v-227h458v-162h-458v-341h-225z" />
<glyph unicode="&#xfb04;" horiz-adv-x="3537" d="M2580 0v900h225v-721h679v-179h-904zM1410 0v900h904v-170h-679v-227h458v-162h-458v-341h-225zM240 0v900h904v-170h-679v-227h458v-162h-458v-341h-225z" />
</font>
</defs>
</svg>
